HIERARCHY
ROOT Hips
{
	OFFSET 0.000000 8.830580 0.000000
	CHANNELS 6 Xposition Yposition Zposition Zrotation Yrotation Xrotation 
	JOINT Spine
	{
		OFFSET 0.000000 0.010000 0.000000
		CHANNELS 3 Zrotation Yrotation Xrotation
		JOINT Spine1
		{
			OFFSET 0.000000 2.459130 0.000000
			CHANNELS 3 Zrotation Yrotation Xrotation
			JOINT Neck
			{
				OFFSET 0.000000 2.484630 0.000000
				CHANNELS 3 Zrotation Yrotation Xrotation
				JOINT Head_virtual
				{
					OFFSET 0.000000 0.000000 0.000000
					CHANNELS 3 Zrotation Yrotation Xrotation
					JOINT Head
					{
						OFFSET 0.000000 0.927525 0.000000
						CHANNELS 3 Zrotation Yrotation Xrotation
						End Site
						{
							OFFSET 0.000000 0.000000 0.000000
						}
					}
				}
				JOINT LeftUpArm_virtual
				{
					OFFSET 0.000000 0.000000 0.000000
					CHANNELS 3 Zrotation Yrotation Xrotation
					JOINT LeftUpArm
					{
						OFFSET 1.248820 0.000000 0.000000
						CHANNELS 3 Zrotation Yrotation Xrotation
						JOINT LeftForeArm
						{
							OFFSET 2.597580 0.000000 0.000000
							CHANNELS 3 Zrotation Yrotation Xrotation
							JOINT LeftHand
							{
								OFFSET 2.455420 0.000000 0.000000
								CHANNELS 3 Zrotation Yrotation Xrotation
								End Site
								{
									OFFSET 0.000000 0.000000 0.000000
								}
							}
						}
					}
				}
				JOINT RightUpArm_virtual
				{
					OFFSET -0.000000 -0.000000 -0.000000
					CHANNELS 3 Zrotation Yrotation Xrotation
					JOINT RightUpArm
					{
						OFFSET -1.248820 -0.000000 -0.000000
						CHANNELS 3 Zrotation Yrotation Xrotation
						JOINT RightForeArm
						{
							OFFSET -2.597580 -0.000000 -0.000000
							CHANNELS 3 Zrotation Yrotation Xrotation
							JOINT RightHand
							{
								OFFSET -2.455420 -0.000000 -0.000000
								CHANNELS 3 Zrotation Yrotation Xrotation
								End Site
								{
									OFFSET 0.000000 0.000000 0.000000
								}
							}
						}
					}
				}
			}
		}
	}
	JOINT LeftUpLeg
	{
		OFFSET 1.271939 0.000000 0.000000
		CHANNELS 3 Zrotation Yrotation Xrotation
		JOINT LeftLowLeg
		{
			OFFSET 0.000000 -4.342910 0.000000
			CHANNELS 3 Zrotation Yrotation Xrotation
			JOINT LeftFoot
			{
				OFFSET 0.000000 -4.487670 0.000000
				CHANNELS 3 Zrotation Yrotation Xrotation
				JOINT LeftToeBase
				{
					OFFSET 0.000000 0.000000 1.515070
					CHANNELS 3 Zrotation Yrotation Xrotation
					End Site
					{
						OFFSET 0.000000 0.000000 0.000000
					}
				}
			}
		}
	}
	JOINT RightUpLeg
	{
		OFFSET -1.271939 0.000000 0.000000
		CHANNELS 3 Zrotation Yrotation Xrotation
		JOINT RightLowLeg
		{
			OFFSET 0.000000 -4.342910 0.000000
			CHANNELS 3 Zrotation Yrotation Xrotation
			JOINT RightFoot
			{
				OFFSET 0.000000 -4.487670 0.000000
				CHANNELS 3 Zrotation Yrotation Xrotation
				JOINT RightToeBase
				{
					OFFSET 0.000000 0.000000 1.515070
					CHANNELS 3 Zrotation Yrotation Xrotation
					End Site
					{
						OFFSET 0.000000 0.000000 0.000000
					}
				}
			}
		}
	}
}
MOTION
Frames: 5
Frame Time: 0.041667
-16.878634 9.432208 44.073013 -173.034900 20.390516 -179.471467 8.370143 -20.146438 -9.615859 -5.731447 19.304865 5.572336 0.000000 0.000000 0.000000 -125.938286 -60.544610 154.438421 81.805832 67.488810 -9.469454 -17.617500 2.403240 -6.339690 43.444599 -15.011300 -34.882500 0.000000 -30.886101 0.000000 50.834801 -11.534500 13.931600 17.750601 -6.105960 -1.351180 -47.793999 29.973499 -40.019100 0.000000 11.337200 0.000000 -38.420399 14.875600 8.249250 8.439861 22.654322 9.532785 0.000000 0.000000 4.929160 -8.855145 12.042145 6.749198 0.000000 0.000000 -9.421860 5.079328 2.017271 -5.212249 0.000000 0.000000 14.953200 19.146207 -31.785690 10.052061 0.000000 0.000000 -12.471670 
-16.801130 9.443911 44.053360 -172.815940 20.945263 -179.176559 8.468539 -20.301546 -9.698389 -5.852093 19.023151 4.926799 0.000000 0.000000 0.000000 -126.925547 -60.396361 155.994409 83.422912 67.770975 -7.859385 -17.433800 2.176320 -5.797370 43.473499 -15.821700 -35.000000 0.000000 -29.031601 0.000000 49.909801 -10.974100 13.625000 17.802401 -6.185060 -1.375400 -46.903599 29.525101 -40.860298 0.000000 10.706400 0.000000 -38.227699 13.258300 8.491940 9.079065 23.059319 9.633256 0.000000 0.000000 5.113880 -9.316043 12.124601 6.990877 0.000000 0.000000 -9.705790 5.612299 3.368286 -4.719762 0.000000 0.000000 14.059400 19.476178 -32.406922 10.018942 0.000000 0.000000 -12.433970 
-16.720619 9.454390 44.027553 -172.633813 21.412589 -178.994937 8.536391 -20.661483 -9.834954 -5.860236 18.582877 4.546952 0.000000 0.000000 0.000000 -128.210130 -60.084976 158.008692 85.195445 68.451554 -5.905267 -17.240000 2.224690 -5.588420 43.135601 -16.526199 -34.930199 0.000000 -27.635700 0.000000 49.874699 -10.965000 13.578800 17.655001 -6.290290 -1.535890 -45.561600 29.063801 -41.381500 0.000000 11.486600 0.000000 -38.395100 12.289600 8.207220 9.771432 23.451894 9.942770 0.000000 0.000000 5.178170 -9.842805 12.063112 7.282250 0.000000 0.000000 -9.964870 6.118544 3.747383 -4.129735 0.000000 0.000000 13.269700 19.316435 -32.406887 10.258797 0.000000 0.000000 -12.305310 
-16.638479 9.462468 44.005167 -172.493240 22.067002 -178.801987 8.564563 -20.959077 -10.244650 -5.602117 18.318328 4.501120 0.000000 0.000000 0.000000 -128.375734 -59.917192 158.520221 85.705965 68.670105 -5.208220 -17.006399 1.594670 -5.379160 42.294800 -16.473900 -34.422298 0.000000 -26.913601 0.000000 50.271198 -10.862500 12.707100 17.360600 -6.462210 -1.764780 -44.289902 28.767300 -41.166199 0.000000 12.378000 0.000000 -38.581600 12.424500 8.489880 10.482662 24.110391 10.324214 0.000000 0.000000 5.190870 -10.401001 11.863813 7.613433 0.000000 0.000000 -10.232590 6.574367 4.018262 -3.693873 0.000000 0.000000 12.704600 18.838317 -31.990508 10.667347 0.000000 0.000000 -12.167700 
-16.553917 9.467293 43.984462 -172.394426 22.841955 -178.642275 8.755342 -21.418320 -10.886354 -5.539765 17.884024 4.818721 0.000000 0.000000 0.000000 -128.208382 -60.034404 158.384242 86.144144 68.846690 -4.572805 -16.728399 1.301630 -5.450530 41.348900 -16.106600 -33.935501 0.000000 -26.546200 0.000000 50.166199 -11.036800 12.930500 17.508400 -5.876170 -1.847820 -43.885899 28.176800 -39.531700 0.000000 12.674300 0.000000 -38.748100 13.079500 8.216630 11.179464 24.743531 10.769609 0.000000 0.000000 5.220980 -10.981047 11.722383 7.919765 0.000000 0.000000 -10.580190 7.017722 4.784949 -3.215789 0.000000 0.000000 12.107900 18.613781 -31.909208 10.780796 0.000000 0.000000 -12.046860 
